<?xml version="1.0" encoding="utf-8"?>
<!-- Generator: Adobe Illustrator 24.1.2, SVG Export Plug-In . SVG Version: 6.00 Build 0)  -->
<svg version="1.1" id="Layer_1" xmlns="http://www.w3.org/2000/svg" xmlns:xlink="http://www.w3.org/1999/xlink" x="0px" y="0px"
	 viewBox="0 0 792 612" style="enable-background:new 0 0 792 612;" xml:space="preserve">
<style type="text/css">
	.st0{fill:none;}
	.st1{fill:#82C341;}
	.st2{fill:#FBD60B;}
	.st3{fill:#00492C;}
	.st4{fill:#DFC500;}
	.st5{fill:#00853E;}
	.st6{fill:url(#SVGID_1_);}
</style>
<pattern  x="-206" y="-567" width="430.6" height="447.1" patternUnits="userSpaceOnUse" id="Sparse" viewBox="35.4 -499.8 430.6 447.1" style="overflow:visible;">
	<g>
		<rect x="35.4" y="-499.8" class="st0" width="430.6" height="447.1"/>
		<g>
			
				<rect x="171.1" y="-50.6" transform="matrix(-0.7756 -0.6312 0.6312 -0.7756 386.541 49.2836)" class="st1" width="61.9" height="13.1"/>
			
				<rect x="410.1" y="-38.1" transform="matrix(0.2907 -0.9568 0.9568 0.2907 343.0336 399.6549)" class="st1" width="61.9" height="13.1"/>
		</g>
		<g>
			
				<rect x="177.9" y="-141" transform="matrix(0.4298 -0.9029 0.9029 0.4298 239.8271 112.2791)" class="st2" width="61.9" height="14.5"/>
			
				<rect x="272.8" y="-225.2" transform="matrix(0.1051 -0.9945 0.9945 0.1051 489.0156 106.6712)" class="st1" width="62" height="13.6"/>
			
				<rect x="135.6" y="-243.7" transform="matrix(-0.1768 -0.9843 0.9843 -0.1768 429.0692 -114.5236)" class="st3" width="62.1" height="14"/>
			
				<rect x="57.9" y="-249" transform="matrix(-0.9685 -0.2491 0.2491 -0.9685 235.3232 -455.0689)" class="st4" width="61.9" height="13.1"/>
			
				<rect x="245.6" y="-115.7" transform="matrix(-0.3469 -0.9379 0.9379 -0.3469 474.5083 113.0592)" class="st3" width="62.1" height="14"/>
			
				<rect x="62" y="-338.8" transform="matrix(-0.5332 -0.846 0.846 -0.5332 422.9808 -429.7149)" class="st2" width="61.9" height="14.5"/>
			
				<rect x="202.7" y="-228.9" transform="matrix(-0.2759 -0.9612 0.9612 -0.2759 511.9062 -59.102)" class="st4" width="61.9" height="13.1"/>
			
				<rect x="123.2" y="-339.1" transform="matrix(0.2907 -0.9568 0.9568 0.2907 426.6868 -87.5585)" class="st5" width="62.2" height="15"/>
			
				<rect x="324.2" y="-261.3" transform="matrix(0.2491 -0.9685 0.9685 0.2491 513.2496 152.9165)" class="st1" width="62" height="13.6"/>
			
				<rect x="405.4" y="-183" transform="matrix(0.3386 -0.9409 0.9409 0.3386 453.9221 294.2886)" class="st2" width="61.9" height="14.5"/>
			
				<rect x="376.2" y="-324.2" transform="matrix(-0.2759 -0.9612 0.9612 -0.2759 824.0903 -12.4441)" class="st5" width="62.2" height="15"/>
			
				<rect x="259.4" y="-351.3" transform="matrix(0.2491 -0.9685 0.9685 0.2491 550.4926 21.2565)" class="st2" width="59.1" height="13.9"/>
			
				<rect x="331.9" y="-373.4" transform="matrix(-0.4132 -0.9107 0.9107 -0.4132 846.5233 -187.2508)" class="st3" width="62.1" height="14"/>
			
				<rect x="426.5" y="-282.8" transform="matrix(-0.5 -0.866 0.866 -0.5 925.4481 -18.2877)" class="st3" width="61.9" height="13.1"/>
			<rect x="349.9" y="-458.1" transform="matrix(0.5 -0.866 0.866 0.5 581.561 104.0664)" class="st4" width="61.9" height="13.1"/>
			
				<rect x="289" y="-440.8" transform="matrix(-0.3469 -0.9379 0.9379 -0.3469 838.2653 -284.8179)" class="st3" width="61.9" height="13.1"/>
			
				<rect x="57.8" y="-423.6" transform="matrix(0.7071 -0.7071 0.7071 0.7071 320.6488 -59.1968)" class="st3" width="62.1" height="14"/>
			
				<rect x="123.3" y="-440.8" transform="matrix(0.2907 -0.9568 0.9568 0.2907 524.96 -160.4129)" class="st4" width="61.9" height="13.1"/>
			
				<rect x="426.4" y="-382" transform="matrix(0.7071 -0.7071 0.7071 0.7071 399.1993 213.606)" class="st3" width="62.1" height="14"/>
			
				<rect x="226.5" y="-458.1" transform="matrix(-0.6773 -0.7357 0.7357 -0.6773 764.1044 -568.0952)" class="st4" width="61.9" height="13.1"/>
			
				<rect x="171.1" y="-497.7" transform="matrix(-0.7756 -0.6312 0.6312 -0.7756 668.7262 -744.5304)" class="st1" width="61.9" height="13.1"/>
			
				<rect x="188.7" y="-398.5" transform="matrix(0.1555 -0.9878 0.9878 0.1555 572.4819 -113.7674)" class="st1" width="62" height="13.6"/>
			
				<rect x="339.8" y="-161.8" transform="matrix(-0.7071 -0.7071 0.7071 -0.7071 742.6025 -2.43)" class="st1" width="62" height="13.6"/>
			
				<rect x="215.2" y="-306.6" transform="matrix(-0.8896 0.4567 -0.4567 -0.8896 328.9231 -677.713)" class="st5" width="62.2" height="15"/>
			
				<rect x="79.4" y="-182.3" transform="matrix(0.9409 0.3386 -0.3386 0.9409 -52.9927 -47.7637)" class="st1" width="61.9" height="13.1"/>
			
				<rect x="113.1" y="-97.5" transform="matrix(0.1051 -0.9945 0.9945 0.1051 218.9364 62.3119)" class="st3" width="62.1" height="14"/>
			
				<rect x="387.3" y="-97.5" transform="matrix(-0.8051 -0.5932 0.5932 -0.8051 808.8068 84.8147)" class="st3" width="62.1" height="14"/>
			
				<rect x="40.5" y="-110.5" transform="matrix(0.5932 -0.8051 0.8051 0.5932 112.0548 15.7893)" class="st5" width="62.2" height="15"/>
			<rect x="299" y="-73.3" transform="matrix(0.866 0.5 -0.5 0.866 10.8262 -173.9383)" class="st1" width="61.9" height="13.1"/>
			
				<rect x="410.1" y="-485.1" transform="matrix(0.2907 -0.9568 0.9568 0.2907 770.7946 82.5364)" class="st1" width="61.9" height="13.1"/>
			
				<rect x="47.7" y="-485.1" transform="matrix(0.866 0.5 -0.5 0.866 -228.7574 -103.454)" class="st1" width="61.9" height="13.1"/>
		</g>
		<g>
			
				<rect x="-4.1" y="-282.8" transform="matrix(-0.5 -0.866 0.866 -0.5 279.5885 -391.1749)" class="st3" width="61.9" height="13.1"/>
			
				<rect x="-4.2" y="-382" transform="matrix(0.7071 -0.7071 0.7071 0.7071 273.0874 -90.8552)" class="st3" width="62.1" height="14"/>
		</g>
		<g>
			
				<rect x="299" y="-520.4" transform="matrix(0.866 0.5 -0.5 0.866 -212.7052 -233.8333)" class="st1" width="61.9" height="13.1"/>
		</g>
	</g>
</pattern>
<pattern  id="SVGID_1_" xlink:href="#Sparse" patternTransform="matrix(0.4291 0 0 0.3888 -2843.5732 -3947.9854)">
</pattern>
<rect class="st6" width="792" height="612"/>
</svg>
