<?xml version="1.0" encoding="utf-8"?>
<!-- Generator: Adobe Illustrator 24.1.2, SVG Export Plug-In . SVG Version: 6.00 Build 0)  -->
<svg version="1.1" id="Layer_1" xmlns="http://www.w3.org/2000/svg" xmlns:xlink="http://www.w3.org/1999/xlink" x="0px" y="0px"
	 viewBox="0 0 330.4 63" style="enable-background:new 0 0 330.4 63;" xml:space="preserve">
<style type="text/css">
	.st0{fill:none;}
	.st1{fill:#007D43;}
	.st2{fill:#FFF1C0;}
	.st3{fill:#FFFFFF;}
	.st4{fill:#49965F;}
	.st5{fill:#05894F;}
	.st6{fill:#3D925A;}
	.st7{fill:#7DAB76;}
	.st8{fill:#FFDC09;}
	.st9{fill:#FFEB98;}
</style>
<rect x="-37.4" y="-28" class="st0" width="397.5" height="118.1"/>
<g>
	<g>
		<path class="st1" d="M58.8,25.9c-3.4,0-6-2.3-6-5.8V9.4h3.2V20c0,1.9,1.1,3,2.8,3c1.7,0,2.8-1.1,2.8-3V9.4h3.2v10.8
			C64.8,23.6,62.1,25.9,58.8,25.9z"/>
		<path class="st1" d="M78.3,25.7l-6.5-10.1v10.1h-3.2V9.4h2.8l6.5,10v-10h3.2v16.4H78.3z"/>
		<path class="st1" d="M85.3,25.7V9.4h3.2v16.4H85.3z"/>
		<path class="st1" d="M98.9,25.7h-2.4L91.1,9.4h3.3L97.7,20L101,9.4h3.3L98.9,25.7z"/>
		<path class="st1" d="M107,25.7V9.4h10.8v2.8h-7.6V16h6.5v2.9h-6.5v4h7.6v2.9H107L107,25.7z"/>
		<path class="st1" d="M129.9,25.7l-3.2-6.5h-2.3v6.5h-3.2V9.4h6.4c3.3,0,5.3,2.3,5.3,5c0,2.3-1.4,3.7-3,4.3l3.7,7.1H129.9z
			 M127.4,12.2h-3v4.3h3c1.4,0,2.3-0.9,2.3-2.2C129.7,13.1,128.8,12.2,127.4,12.2z"/>
		<path class="st1" d="M141,25.9c-2.5,0-4.4-0.5-6-2.2l2.1-2.1c1,1,2.4,1.4,4,1.4c1.9,0,2.9-0.7,2.9-2c0-0.6-0.2-1.1-0.5-1.4
			c-0.3-0.3-0.7-0.5-1.4-0.6l-2-0.3c-1.4-0.2-2.4-0.6-3.2-1.4c-0.8-0.8-1.2-1.8-1.2-3.2c0-2.9,2.2-5,5.7-5c2.2,0,3.9,0.6,5.3,1.9
			l-2,2c-1-1-2.3-1.1-3.4-1.1c-1.7,0-2.5,0.9-2.5,2.1c0,0.4,0.1,0.9,0.5,1.2c0.3,0.3,0.9,0.6,1.5,0.6l1.9,0.3
			c1.5,0.2,2.4,0.6,3.1,1.3c0.9,0.8,1.3,2,1.3,3.5C147.1,24.1,144.4,25.9,141,25.9z"/>
		<path class="st1" d="M150.2,25.7V9.4h3.2v16.4H150.2z"/>
		<path class="st1" d="M163.9,12.2v13.5h-3.2V12.2h-4.3V9.4h11.8v2.8C168.1,12.2,163.9,12.2,163.9,12.2z"/>
		<path class="st1" d="M177.8,19v6.7h-3.2V19l-4.9-9.7h3.5l3.1,6.6l3-6.6h3.5L177.8,19z"/>
		<path class="st1" d="M200.9,24.1c-1.1,1.1-2.6,1.8-4.4,1.8c-1.9,0-3.3-0.6-4.4-1.8c-1.7-1.7-1.6-3.7-1.6-6.5s-0.1-4.9,1.6-6.5
			c1.1-1.1,2.6-1.8,4.4-1.8s3.3,0.6,4.4,1.8c1.7,1.7,1.6,3.7,1.6,6.5S202.6,22.4,200.9,24.1z M198.5,12.9c-0.5-0.5-1.2-0.9-2.1-0.9
			c-0.9,0-1.6,0.3-2.1,0.9c-0.6,0.7-0.8,1.4-0.8,4.6s0.2,3.9,0.8,4.6c0.5,0.5,1.2,0.9,2.1,0.9s1.6-0.3,2.1-0.9
			c0.6-0.7,0.8-1.5,0.8-4.6S199.2,13.6,198.5,12.9z"/>
		<path class="st1" d="M208.9,12.2v4h6.5v2.9h-6.5v6.6h-3.2V9.4h10.8v2.8C216.4,12.2,208.9,12.2,208.9,12.2z"/>
		<path class="st1" d="M233.6,25.7l-1-2.9h-5.8l-1,2.9h-3.3l6-16.4h2.5l6,16.4H233.6z M229.8,14.2l-2.1,6h4.1L229.8,14.2z"/>
		<path class="st1" d="M239.7,25.7V9.4h3.2v13.5h7.4v2.9C250.3,25.7,239.7,25.7,239.7,25.7z"/>
		<path class="st1" d="M260.1,25.7h-6.9V9.4h6.6c3.2,0,5.1,1.8,5.1,4.6c0,1.8-1.2,3-2,3.4c1,0.5,2.2,1.5,2.2,3.7
			C265.2,24.1,263.1,25.7,260.1,25.7z M259.6,12.2h-3.1V16h3.1c1.4,0,2.1-0.8,2.1-1.9C261.7,13,261,12.2,259.6,12.2z M259.8,18.9
			h-3.3v4h3.3c1.5,0,2.1-0.9,2.1-2S261.3,18.9,259.8,18.9z"/>
		<path class="st1" d="M268.6,25.7V9.4h10.8v2.8h-7.6V16h6.5v2.9h-6.5v4h7.6v2.9H268.6L268.6,25.7z"/>
		<path class="st1" d="M291.5,25.7l-3.2-6.5H286v6.5h-3.2V9.4h6.4c3.3,0,5.3,2.3,5.3,5c0,2.3-1.4,3.7-3,4.3l3.7,7.1H291.5z
			 M289,12.2h-3v4.3h3c1.4,0,2.3-0.9,2.3-2.2C291.4,13.1,290.4,12.2,289,12.2z"/>
		<path class="st1" d="M304.2,12.2v13.5H301V12.2h-4.3V9.4h11.8v2.8C308.4,12.2,304.2,12.2,304.2,12.2z"/>
		<path class="st1" d="M319.5,25.7l-1-2.9h-5.8l-1,2.9h-3.3l6-16.4h2.5l6,16.4H319.5z M315.6,14.2l-2.1,6h4.1L315.6,14.2z"/>
	</g>
	<g>
		<path class="st1" d="M53.6,52.7V34.9h1.9V51h9.1v1.7L53.6,52.7L53.6,52.7z"/>
		<path class="st1" d="M67.9,52.7V34.9h1.9v17.8H67.9z"/>
		<path class="st1" d="M81.3,52.7h-6.9V34.9h6.7c3.1,0,5.2,1.8,5.2,4.8c0,1.9-1.1,3.3-2.6,3.9c1.7,0.6,2.9,2.1,2.9,4.2
			C86.6,51,84.5,52.7,81.3,52.7z M80.9,36.5h-4.7v6.2h4.7c2,0,3.5-1,3.5-3.1C84.4,37.5,82.9,36.5,80.9,36.5z M81.2,44.4h-4.8V51h4.8
			c2.2,0,3.6-1.3,3.6-3.3C84.7,45.7,83.3,44.4,81.2,44.4z"/>
		<path class="st1" d="M100.8,52.7l-4.1-7.9h-4.3v7.9h-1.9V34.9h6.8c3.1,0,5.3,1.9,5.3,5c0,2.6-1.6,4.3-3.9,4.8l4.2,8.1L100.8,52.7
			L100.8,52.7z M97.2,36.5h-4.8v6.5h4.8c2.1,0,3.6-1.1,3.6-3.2C100.8,37.7,99.3,36.5,97.2,36.5z"/>
		<path class="st1" d="M118.2,52.7l-1.4-4H109l-1.4,4h-2l6.6-17.8h1.6l6.5,17.8H118.2z M112.9,37.6l-3.3,9.4h6.7L112.9,37.6z"/>
		<path class="st1" d="M133.5,52.7l-4.1-7.9h-4.3v7.9h-1.9V34.9h6.8c3.1,0,5.3,1.9,5.3,5c0,2.6-1.6,4.3-3.9,4.8l4.2,8.1L133.5,52.7
			L133.5,52.7z M129.9,36.5h-4.8v6.5h4.8c2.1,0,3.6-1.1,3.6-3.2S132,36.5,129.9,36.5z"/>
		<path class="st1" d="M144.4,45.3v7.3h-1.9v-7.3l-5.3-10.5h2.1l4.2,8.5l4.1-8.5h2.1L144.4,45.3z"/>
	</g>
	<g>
		<g>
			<g>
				<path class="st1" d="M18.7,54.7l-0.4-0.1c-0.2-0.1-5.7-2-11.1-6.6C0.7,42.3,0,33.8,0,30.4v-21L0.6,9c5.1-2.5,10.9-3.7,18.1-3.7
					S31.6,6.5,36.8,9l0.6,0.3v21c0,3.4-0.7,11.9-7.2,17.6c-5.4,4.7-10.9,6.5-11.1,6.6L18.7,54.7z"/>
				<path class="st2" d="M18.7,7.6c-6.6,0-11.8,1-16.5,3.2v13.7C4.1,23.3,5.7,22,7,20.6c1.5,1.7,3.5,3.2,5.9,4.5
					c2.4-1.2,4.4-2.8,5.9-4.5c1.5,1.7,3.5,3.2,5.9,4.5c2.4-1.2,4.4-2.8,5.9-4.5c1.2,1.4,2.8,2.8,4.8,3.9V10.7
					C30.5,8.6,25.2,7.6,18.7,7.6z M27,18.5c-1.9,0-3.2-0.3-5-0.7c-0.3-0.1-0.7-0.1-1-0.1c-0.7,0-1.4,0.2-1.9,0.4
					c-0.2,0.1-0.3,0.1-0.4,0.2c-0.1-0.1-0.3-0.2-0.4-0.2c-0.5-0.2-1.2-0.4-1.9-0.4c-0.3,0-0.6,0-1,0.1c-1.9,0.4-3.2,0.7-5,0.7
					c-0.3,0-0.5,0-0.8,0l0.6-6.3c0.3,0,0.6,0,0.8,0l0.1-2l0.6,0c0.2,0,0.4,0,0.6,0c0.7,0,1.2-0.1,1.9-0.2c0.4-0.1,0.8-0.2,1.2-0.3
					c0.2-0.1,0.4-0.1,0.7-0.2c0.8-0.2,1.6-0.1,2.3,0.3c0.1,0.1,0.3,0.2,0.4,0.2C18.8,10,19,10,19.1,9.9c0.7-0.4,1.5-0.5,2.2-0.3
					c0.2,0.1,0.5,0.1,0.7,0.2c0.5,0.1,0.8,0.2,1.2,0.3c0.8,0.2,1.6,0.2,2.5,0.2l0.6,0l0.2,2c0.3,0,0.5,0,0.8,0l0.6,6.3
					C27.6,18.5,27.3,18.5,27,18.5z"/>
				<g>
					<path class="st3" d="M15.8,16L15.8,16c-1.6,0.4-2.6,0.6-4.1,0.6l0.4-5.2c0.8,0,1.5-0.1,2.2-0.2c0.4-0.1,0.8-0.2,1.3-0.3
						c0.2-0.1,0.4-0.1,0.7-0.2c0.5-0.1,1-0.1,1.4,0.2c0.2,0.1,0.3,0.2,0.4,0.3v4.9C17.4,15.9,16.6,15.8,15.8,16z"/>
					<path class="st3" d="M21.6,16c-0.8-0.2-1.5-0.2-2.3,0.1v-4.9c0.1-0.1,0.2-0.2,0.4-0.3c0.4-0.2,0.9-0.3,1.4-0.2
						c0.2,0.1,0.5,0.1,0.7,0.2c0.5,0.1,0.9,0.2,1.3,0.3c0.7,0.1,1.3,0.2,2.1,0.2c0,0,0.1,0,0.1,0l0.4,5.2
						C24.1,16.7,23.1,16.4,21.6,16z"/>
				</g>
				<g>
					<path class="st4" d="M18.7,27.2c2.1-0.5,4.1-1.2,5.9-2.1c-2.4-1.2-4.4-2.8-5.9-4.5c-1.5,1.7-3.5,3.2-5.9,4.5
						C14.6,26,16.5,26.7,18.7,27.2z"/>
					<path class="st5" d="M7,27.2c1.8,0.4,3.8,0.6,5.9,0.6c2.1,0,4-0.2,5.9-0.6c-2.2-0.5-4.1-1.2-5.9-2.1C11.1,26,9.1,26.7,7,27.2z"
						/>
					<path class="st5" d="M18.7,27.2c1.8,0.4,3.8,0.6,5.8,0.6c2.1,0,4-0.2,5.9-0.7c-2.1-0.5-4.1-1.2-5.9-2.1
						C22.8,26,20.8,26.7,18.7,27.2z"/>
					<path class="st6" d="M2.2,27.8c1.7-0.1,3.3-0.3,4.8-0.6c-1.7-0.4-3.3-0.9-4.8-1.6C2.2,25.6,2.2,27.8,2.2,27.8z"/>
					<path class="st7" d="M2.2,24.5v1.1c1.5,0.7,3.1,1.2,4.8,1.6c2.1-0.5,4.1-1.2,5.9-2.1c-2.4-1.2-4.4-2.8-5.9-4.5
						C5.7,22,4.1,23.3,2.2,24.5z"/>
					<path class="st6" d="M35.2,25.6c-1.5,0.7-3.1,1.2-4.8,1.6c1.5,0.3,3.1,0.5,4.8,0.6V25.6z"/>
					<path class="st7" d="M35.2,25.6v-1.1c-1.9-1.1-3.5-2.5-4.8-3.9c-1.5,1.7-3.5,3.2-5.9,4.5c1.8,0.9,3.7,1.6,5.8,2.1
						C32.1,26.8,33.7,26.2,35.2,25.6z"/>
				</g>
				<path class="st8" d="M33.2,30.8c-0.9-0.5-1.7-1.1-2.8-1.1s-1.9,0.5-2.8,1.1c-0.9,0.6-1.8,1.2-3.1,1.2s-2.2-0.6-3.1-1.2
					c-0.9-0.6-1.7-1.1-2.8-1.1c-1.1,0-1.9,0.5-2.8,1.1C15,31.4,14.1,32,12.8,32s-2.2-0.6-3.1-1.2C8.9,30.2,8,29.7,7,29.7
					c-1.1,0-1.9,0.5-2.8,1.1c-0.6,0.4-1.2,0.8-2,1c0.1,0.8,0.1,1.8,0.3,2.8c0.5-0.2,1-0.5,1.4-0.8c0.9-0.5,1.8-1.1,3-1.1
					s2.1,0.6,3,1.1c0.9,0.6,1.8,1.1,2.9,1.1c1.1,0,2-0.5,2.9-1.1c0.9-0.5,1.8-1.1,3-1.1c1.2,0,2.1,0.6,3,1.1
					c0.9,0.6,1.8,1.1,2.9,1.1s2-0.5,2.9-1.1c0.9-0.5,1.8-1.1,3-1.1s2.1,0.6,3,1.1c0.5,0.3,0.9,0.6,1.5,0.8c0.2-1.1,0.3-2,0.3-2.9
					C34.4,31.6,33.8,31.2,33.2,30.8z"/>
			</g>
			<g>
				<path class="st9" d="M20.4,51.6v-1.3l-1.5,1.5l-1.3-1.3v-2l1.3,1.3l1.5-1.5v-2.2l-1.5,1.5l-1.3-1.3v-2.1l1.3,1.3l1.5-1.5v-2.3
					l-1.5,1.5L17.5,42v-1.9l1.3,1.2l2.2-2.2l-2.3-2l-2.6,2.2v11.8c1.2,0.6,2.1,1,2.5,1.1C19,52.2,19.6,52,20.4,51.6z"/>
				<path class="st9" d="M14.5,46.4L13,48l-1.3-1.3v-2l1.3,1.3l1.5-1.5v-2.4L13,43.4l-1.3-1.3v-2.1l1.3,1.2l2.2-2.2l-2.3-2l-2.6,2.2
					v8.2c1.5,1.1,3,2,4.2,2.8L14.5,46.4L14.5,46.4z"/>
				<path class="st9" d="M24.7,41.3l2.2-2.2l-2.3-2L22,39.4v11.4c1.2-0.7,2.7-1.5,4.2-2.6v-1.8L24.7,48l-1.3-1.3v-2l1.3,1.3l1.5-1.5
					v-2.4l-1.5,1.5l-1.3-1.3v-2.1L24.7,41.3z"/>
				<path class="st9" d="M30.6,41.3l2.2-2.2l-2.3-2l-2.6,2.2V47c0.3-0.2,0.6-0.5,0.9-0.7c1.4-1.2,2.5-2.6,3.4-4v-0.3l-1.5,1.5
					l-1.3-1.3v-2.1L30.6,41.3z"/>
				<path class="st9" d="M7.1,41.3l2.2-2.2l-2.3-2l-2.6,2.2v1.3c1,2,2.3,3.9,4.2,5.6v-4.3l-1.6,1.5l-1.3-1.3v-2.1L7.1,41.3z"/>
			</g>
		</g>
	</g>
</g>
</svg>
