<svg version="1.1" id="Layer_1" xmlns="http://www.w3.org/2000/svg" xmlns:xlink="http://www.w3.org/1999/xlink" x="0" y="0" viewBox="0 0 792 612" xml:space="preserve"><style>.st1{fill:#82c341}.st2{fill:#fbd60b}.st3{fill:#00492c}.st4{fill:#dfc500}.st5{fill:#00853e}</style><pattern x="-206" y="-567" width="430.6" height="447.1" patternUnits="userSpaceOnUse" id="Sparse" viewBox="35.4 -499.8 430.6 447.1" overflow="visible"><path fill="none" d="M35.4-499.8H466v447.1H35.4z"/><path transform="rotate(-140.859 202.032 -44.063)" class="st1" d="M171.1-50.6H233v13.1h-61.9z"/><path transform="rotate(-73.1 441.08 -31.538)" class="st1" d="M410.1-38.1H472V-25h-61.9z"/><path transform="rotate(-64.545 208.817 -133.746)" class="st2" d="M177.9-141h61.9v14.5h-61.9z"/><path transform="rotate(-83.967 303.765 -218.365)" class="st1" d="M272.8-225.2h62v13.6h-62z"/><path transform="scale(-1) rotate(79.817 -282.983 -199.23)" class="st3" d="M135.6-243.7h62.1v14h-62.1z"/><path transform="rotate(-165.581 88.868 -242.421)" class="st4" d="M57.9-249h61.9v13.1H57.9z"/><path transform="rotate(-110.298 276.618 -108.68)" class="st3" d="M245.6-115.7h62.1v14h-62.1z"/><path transform="rotate(-122.222 92.934 -331.553)" class="st2" d="M62-338.8h61.9v14.5H62z"/><path transform="rotate(-106.016 233.688 -222.371)" class="st4" d="M202.7-228.9h61.9v13.1h-61.9z"/><path transform="rotate(-73.1 154.291 -331.572)" class="st5" d="M123.2-339.1h62.2v15h-62.2z"/><path transform="rotate(-75.576 355.23 -254.525)" class="st1" d="M324.2-261.3h62v13.6h-62z"/><path transform="rotate(-70.208 436.308 -175.747)" class="st2" d="M405.4-183h61.9v14.5h-61.9z"/><path transform="rotate(-106.016 407.354 -316.633)" class="st5" d="M376.2-324.2h62.2v15h-62.2z"/><path transform="rotate(-75.576 288.946 -344.37)" class="st2" d="M259.4-351.3h59.1v13.9h-59.1z"/><path transform="scale(-1) rotate(65.595 -568.522 -563.175)" class="st3" d="M331.9-373.4H394v14h-62.1z"/><path transform="rotate(-120 457.452 -276.294)" class="st3" d="M426.5-282.8h61.9v13.1h-61.9z"/><path transform="rotate(-60 380.919 -451.618)" class="st4" d="M349.9-458.1h61.9v13.1h-61.9z"/><path transform="rotate(-110.298 319.968 -434.268)" class="st3" d="M289-440.8h61.9v13.1H289z"/><path transform="rotate(-45.001 88.873 -416.657)" class="st3" d="M57.8-423.6h62.1v14H57.8z"/><path transform="rotate(-73.1 154.29 -434.283)" class="st4" d="M123.3-440.8h61.9v13.1h-61.9z"/><path transform="rotate(-45.001 457.451 -375.07)" class="st3" d="M426.4-382h62.1v14h-62.1z"/><path transform="rotate(-132.633 257.464 -451.625)" class="st4" d="M226.5-458.1h61.9v13.1h-61.9z"/><path transform="rotate(-140.859 202.03 -491.13)" class="st1" d="M171.1-497.7H233v13.1h-61.9z"/><path transform="rotate(-81.054 219.71 -391.724)" class="st1" d="M188.7-398.5h62v13.6h-62z"/><path transform="rotate(-134.999 370.8 -155.013)" class="st1" d="M339.8-161.8h62v13.6h-62z"/><path transform="rotate(152.823 246.363 -299.11)" class="st5" d="M215.2-306.6h62.2v15h-62.2z"/><path transform="rotate(19.792 110.399 -175.765)" class="st1" d="M79.4-182.3h61.9v13.1H79.4z"/><path transform="rotate(-83.967 144.085 -90.487)" class="st3" d="M113.1-97.5h62.1v14h-62.1z"/><path transform="scale(-1) rotate(36.383 -275.346 -1272.98)" class="st3" d="M387.3-97.5h62.1v14h-62.1z"/><path transform="rotate(-53.617 71.648 -102.976)" class="st5" d="M40.5-110.5h62.2v15H40.5z"/><path transform="rotate(30 329.979 -66.782)" class="st1" d="M299-73.3h61.9v13.1H299z"/><path transform="rotate(-73.1 441.074 -478.617)" class="st1" d="M410.1-485.1H472v13.1h-61.9z"/><path transform="rotate(30 78.645 -478.592)" class="st1" d="M47.7-485.1h61.9v13.1H47.7z"/><g><path transform="rotate(-120 26.875 -276.3)" class="st3" d="M-4.1-282.8h61.9v13.1H-4.1z"/><path transform="rotate(-45.001 26.876 -375.075)" class="st3" d="M-4.2-382h62.1v14H-4.2z"/></g><g><path transform="rotate(30 329.958 -513.84)" class="st1" d="M299-520.4h61.9v13.1H299z"/></g></pattern><pattern id="SVGID_1_" xlink:href="#Sparse" patternTransform="matrix(.4291 0 0 .3888 -2843.573 -3947.985)"/><path fill="url(#SVGID_1_)" d="M0 0h792v612H0z"/></svg>