<svg version="1.1" id="Layer_1" xmlns="http://www.w3.org/2000/svg" x="0" y="0" viewBox="0 0 330.4 63" xml:space="preserve"><style>.st1{fill:#007d43}.st3{fill:#fff}.st5{fill:#05894f}.st6{fill:#3d925a}.st7{fill:#7dab76}.st9{fill:#ffeb98}</style><path fill="none" d="M-37.4-28h397.5V90.1H-37.4z"/><path class="st1" d="M58.8 25.9c-3.4 0-6-2.3-6-5.8V9.4H56V20c0 1.9 1.1 3 2.8 3 1.7 0 2.8-1.1 2.8-3V9.4h3.2v10.8c0 3.4-2.7 5.7-6 5.7zM78.3 25.7l-6.5-10.1v10.1h-3.2V9.4h2.8l6.5 10v-10h3.2v16.4h-2.8zM85.3 25.7V9.4h3.2v16.4h-3.2zM98.9 25.7h-2.4L91.1 9.4h3.3L97.7 20 101 9.4h3.3l-5.4 16.3zM107 25.7V9.4h10.8v2.8h-7.6V16h6.5v2.9h-6.5v4h7.6v2.9H107v-.1zM129.9 25.7l-3.2-6.5h-2.3v6.5h-3.2V9.4h6.4c3.3 0 5.3 2.3 5.3 5 0 2.3-1.4 3.7-3 4.3l3.7 7.1h-3.7zm-2.5-13.5h-3v4.3h3c1.4 0 2.3-.9 2.3-2.2 0-1.2-.9-2.1-2.3-2.1zM141 25.9c-2.5 0-4.4-.5-6-2.2l2.1-2.1c1 1 2.4 1.4 4 1.4 1.9 0 2.9-.7 2.9-2 0-.6-.2-1.1-.5-1.4-.3-.3-.7-.5-1.4-.6l-2-.3c-1.4-.2-2.4-.6-3.2-1.4-.8-.8-1.2-1.8-1.2-3.2 0-2.9 2.2-5 5.7-5 2.2 0 3.9.6 5.3 1.9l-2 2c-1-1-2.3-1.1-3.4-1.1-1.7 0-2.5.9-2.5 2.1 0 .4.1.9.5 1.2.3.3.9.6 1.5.6l1.9.3c1.5.2 2.4.6 3.1 1.3.9.8 1.3 2 1.3 3.5 0 3.2-2.7 5-6.1 5zM150.2 25.7V9.4h3.2v16.4h-3.2zM163.9 12.2v13.5h-3.2V12.2h-4.3V9.4h11.8v2.8h-4.3zM177.8 19v6.7h-3.2V19l-4.9-9.7h3.5l3.1 6.6 3-6.6h3.5l-5 9.7zM200.9 24.1c-1.1 1.1-2.6 1.8-4.4 1.8-1.9 0-3.3-.6-4.4-1.8-1.7-1.7-1.6-3.7-1.6-6.5s-.1-4.9 1.6-6.5c1.1-1.1 2.6-1.8 4.4-1.8s3.3.6 4.4 1.8c1.7 1.7 1.6 3.7 1.6 6.5s.1 4.8-1.6 6.5zm-2.4-11.2c-.5-.5-1.2-.9-2.1-.9-.9 0-1.6.3-2.1.9-.6.7-.8 1.4-.8 4.6s.2 3.9.8 4.6c.5.5 1.2.9 2.1.9s1.6-.3 2.1-.9c.6-.7.8-1.5.8-4.6s-.1-3.9-.8-4.6zM208.9 12.2v4h6.5v2.9h-6.5v6.6h-3.2V9.4h10.8v2.8h-7.6zM233.6 25.7l-1-2.9h-5.8l-1 2.9h-3.3l6-16.4h2.5l6 16.4h-3.4zm-3.8-11.5l-2.1 6h4.1l-2-6zM239.7 25.7V9.4h3.2v13.5h7.4v2.9c0-.1-10.6-.1-10.6-.1zM260.1 25.7h-6.9V9.4h6.6c3.2 0 5.1 1.8 5.1 4.6 0 1.8-1.2 3-2 3.4 1 .5 2.2 1.5 2.2 3.7.1 3-2 4.6-5 4.6zm-.5-13.5h-3.1V16h3.1c1.4 0 2.1-.8 2.1-1.9 0-1.1-.7-1.9-2.1-1.9zm.2 6.7h-3.3v4h3.3c1.5 0 2.1-.9 2.1-2s-.6-2-2.1-2zM268.6 25.7V9.4h10.8v2.8h-7.6V16h6.5v2.9h-6.5v4h7.6v2.9h-10.8v-.1zM291.5 25.7l-3.2-6.5H286v6.5h-3.2V9.4h6.4c3.3 0 5.3 2.3 5.3 5 0 2.3-1.4 3.7-3 4.3l3.7 7.1h-3.7zM289 12.2h-3v4.3h3c1.4 0 2.3-.9 2.3-2.2.1-1.2-.9-2.1-2.3-2.1zM304.2 12.2v13.5H301V12.2h-4.3V9.4h11.8v2.8h-4.3zM319.5 25.7l-1-2.9h-5.8l-1 2.9h-3.3l6-16.4h2.5l6 16.4h-3.4zm-3.9-11.5l-2.1 6h4.1l-2-6z"/><g><path class="st1" d="M53.6 52.7V34.9h1.9V51h9.1v1.7h-11zM67.9 52.7V34.9h1.9v17.8h-1.9zM81.3 52.7h-6.9V34.9h6.7c3.1 0 5.2 1.8 5.2 4.8 0 1.9-1.1 3.3-2.6 3.9 1.7.6 2.9 2.1 2.9 4.2 0 3.2-2.1 4.9-5.3 4.9zm-.4-16.2h-4.7v6.2h4.7c2 0 3.5-1 3.5-3.1s-1.5-3.1-3.5-3.1zm.3 7.9h-4.8V51h4.8c2.2 0 3.6-1.3 3.6-3.3-.1-2-1.5-3.3-3.6-3.3zM100.8 52.7l-4.1-7.9h-4.3v7.9h-1.9V34.9h6.8c3.1 0 5.3 1.9 5.3 5 0 2.6-1.6 4.3-3.9 4.8l4.2 8.1-2.1-.1zm-3.6-16.2h-4.8V43h4.8c2.1 0 3.6-1.1 3.6-3.2s-1.5-3.3-3.6-3.3zM118.2 52.7l-1.4-4H109l-1.4 4h-2l6.6-17.8h1.6l6.5 17.8h-2.1zm-5.3-15.1l-3.3 9.4h6.7l-3.4-9.4zM133.5 52.7l-4.1-7.9h-4.3v7.9h-1.9V34.9h6.8c3.1 0 5.3 1.9 5.3 5 0 2.6-1.6 4.3-3.9 4.8l4.2 8.1-2.1-.1zm-3.6-16.2h-4.8V43h4.8c2.1 0 3.6-1.1 3.6-3.2s-1.5-3.3-3.6-3.3zM144.4 45.3v7.3h-1.9v-7.3l-5.3-10.5h2.1l4.2 8.5 4.1-8.5h2.1l-5.3 10.5z"/></g><g><path class="st1" d="M18.7 54.7l-.4-.1c-.2-.1-5.7-2-11.1-6.6C.7 42.3 0 33.8 0 30.4v-21L.6 9c5.1-2.5 10.9-3.7 18.1-3.7S31.6 6.5 36.8 9l.6.3v21c0 3.4-.7 11.9-7.2 17.6-5.4 4.7-10.9 6.5-11.1 6.6l-.4.2z"/><path d="M18.7 7.6c-6.6 0-11.8 1-16.5 3.2v13.7C4.1 23.3 5.7 22 7 20.6c1.5 1.7 3.5 3.2 5.9 4.5 2.4-1.2 4.4-2.8 5.9-4.5 1.5 1.7 3.5 3.2 5.9 4.5 2.4-1.2 4.4-2.8 5.9-4.5 1.2 1.4 2.8 2.8 4.8 3.9V10.7c-4.9-2.1-10.2-3.1-16.7-3.1zM27 18.5c-1.9 0-3.2-.3-5-.7-.3-.1-.7-.1-1-.1-.7 0-1.4.2-1.9.4-.2.1-.3.1-.4.2-.1-.1-.3-.2-.4-.2-.5-.2-1.2-.4-1.9-.4-.3 0-.6 0-1 .1-1.9.4-3.2.7-5 .7h-.8l.6-6.3h.8l.1-2h1.2c.7 0 1.2-.1 1.9-.2l1.2-.3c.2-.1.4-.1.7-.2.8-.2 1.6-.1 2.3.3.1.1.3.2.4.2 0 0 .2 0 .3-.1.7-.4 1.5-.5 2.2-.3.2.1.5.1.7.2.5.1.8.2 1.2.3.8.2 1.6.2 2.5.2h.6l.2 2h.8l.6 6.3c-.3-.1-.6-.1-.9-.1z" fill="#fff1c0"/><path class="st3" d="M15.8 16c-1.6.4-2.6.6-4.1.6l.4-5.2c.8 0 1.5-.1 2.2-.2.4-.1.8-.2 1.3-.3.2-.1.4-.1.7-.2.5-.1 1-.1 1.4.2.2.1.3.2.4.3v4.9c-.7-.2-1.5-.3-2.3-.1zM21.6 16c-.8-.2-1.5-.2-2.3.1v-4.9c.1-.1.2-.2.4-.3.4-.2.9-.3 1.4-.2.2.1.5.1.7.2.5.1.9.2 1.3.3.7.1 1.3.2 2.1.2h.1l.4 5.2c-1.6.1-2.6-.2-4.1-.6z"/><path d="M18.7 27.2c2.1-.5 4.1-1.2 5.9-2.1-2.4-1.2-4.4-2.8-5.9-4.5-1.5 1.7-3.5 3.2-5.9 4.5 1.8.9 3.7 1.6 5.9 2.1z" fill="#49965f"/><path class="st5" d="M7 27.2c1.8.4 3.8.6 5.9.6 2.1 0 4-.2 5.9-.6-2.2-.5-4.1-1.2-5.9-2.1-1.8.9-3.8 1.6-5.9 2.1z"/><path class="st5" d="M18.7 27.2c1.8.4 3.8.6 5.8.6 2.1 0 4-.2 5.9-.7-2.1-.5-4.1-1.2-5.9-2.1-1.7 1-3.7 1.7-5.8 2.2z"/><path class="st6" d="M2.2 27.8c1.7-.1 3.3-.3 4.8-.6-1.7-.4-3.3-.9-4.8-1.6v2.2z"/><path class="st7" d="M2.2 24.5v1.1c1.5.7 3.1 1.2 4.8 1.6 2.1-.5 4.1-1.2 5.9-2.1-2.4-1.2-4.4-2.8-5.9-4.5-1.3 1.4-2.9 2.7-4.8 3.9z"/><path class="st6" d="M35.2 25.6c-1.5.7-3.1 1.2-4.8 1.6 1.5.3 3.1.5 4.8.6v-2.2z"/><path class="st7" d="M35.2 25.6v-1.1c-1.9-1.1-3.5-2.5-4.8-3.9-1.5 1.7-3.5 3.2-5.9 4.5 1.8.9 3.7 1.6 5.8 2.1 1.8-.4 3.4-1 4.9-1.6z"/><path d="M33.2 30.8c-.9-.5-1.7-1.1-2.8-1.1s-1.9.5-2.8 1.1c-.9.6-1.8 1.2-3.1 1.2s-2.2-.6-3.1-1.2c-.9-.6-1.7-1.1-2.8-1.1-1.1 0-1.9.5-2.8 1.1-.8.6-1.7 1.2-3 1.2s-2.2-.6-3.1-1.2c-.8-.6-1.7-1.1-2.7-1.1-1.1 0-1.9.5-2.8 1.1-.6.4-1.2.8-2 1 .1.8.1 1.8.3 2.8.5-.2 1-.5 1.4-.8.9-.5 1.8-1.1 3-1.1s2.1.6 3 1.1c.9.6 1.8 1.1 2.9 1.1 1.1 0 2-.5 2.9-1.1.9-.5 1.8-1.1 3-1.1s2.1.6 3 1.1c.9.6 1.8 1.1 2.9 1.1s2-.5 2.9-1.1c.9-.5 1.8-1.1 3-1.1s2.1.6 3 1.1c.5.3.9.6 1.5.8.2-1.1.3-2 .3-2.9-.9-.1-1.5-.5-2.1-.9z" fill="#ffdc09"/><g><path class="st9" d="M20.4 51.6v-1.3l-1.5 1.5-1.3-1.3v-2l1.3 1.3 1.5-1.5v-2.2l-1.5 1.5-1.3-1.3v-2.1l1.3 1.3 1.5-1.5v-2.3l-1.5 1.5-1.4-1.2v-1.9l1.3 1.2 2.2-2.2-2.3-2-2.6 2.2v11.8c1.2.6 2.1 1 2.5 1.1.4 0 1-.2 1.8-.6zM14.5 46.4L13 48l-1.3-1.3v-2L13 46l1.5-1.5v-2.4L13 43.4l-1.3-1.3V40l1.3 1.2 2.2-2.2-2.3-2-2.6 2.2v8.2c1.5 1.1 3 2 4.2 2.8v-3.8zM24.7 41.3l2.2-2.2-2.3-2-2.6 2.3v11.4c1.2-.7 2.7-1.5 4.2-2.6v-1.8L24.7 48l-1.3-1.3v-2l1.3 1.3 1.5-1.5v-2.4l-1.5 1.5-1.3-1.3v-2.1l1.3 1.1zM30.6 41.3l2.2-2.2-2.3-2-2.6 2.2V47c.3-.2.6-.5.9-.7 1.4-1.2 2.5-2.6 3.4-4V42l-1.5 1.5-1.3-1.3v-2.1l1.2 1.2zM7.1 41.3l2.2-2.2-2.3-2-2.6 2.2v1.3c1 2 2.3 3.9 4.2 5.6v-4.3L7 43.4l-1.3-1.3V40l1.4 1.3z"/></g></g></svg>